<?xml version="1.0" encoding="UTF-8" standalone="no"?><!DOCTYPE svg PUBLIC "-//W3C//DTD SVG 1.1//EN" "http://www.w3.org/Graphics/SVG/1.1/DTD/svg11.dtd"><svg width="100%" height="100%" viewBox="0 0 1792 513" version="1.1" xmlns="http://www.w3.org/2000/svg" xmlns:xlink="http://www.w3.org/1999/xlink" xml:space="preserve" xmlns:serif="http://www.serif.com/" style="fill-rule:evenodd;clip-rule:evenodd;stroke-linejoin:round;stroke-miterlimit:2;"><g><path d="M1247.73,308.979l67.913,-67.908l67.704,67.908l67.908,-67.908l67.717,67.908l-67.717,67.717l67.717,67.904l-67.717,67.704l-67.908,-67.704l-67.704,67.704l-67.913,-67.704l67.913,-67.904l-67.913,-67.717Z" style="fill:#fff;fill-rule:nonzero;"/><path d="M1515.91,309.196l67.7,-67.913l67.913,67.913l67.708,-67.913l67.913,67.913l-67.913,67.704l67.913,67.896l-67.913,67.704l-67.708,-67.704l-67.913,67.704l-67.7,-67.704l67.7,-67.896l-67.7,-67.704Z" style="fill:#fff;fill-rule:nonzero;"/><path d="M487.871,177.875l51.962,-51.742l51.73,51.742l-51.73,51.742l-51.962,-51.742Z" style="fill:#fff;fill-rule:nonzero;"/><rect x="34.262" y="161.5" width="420.217" height="31.221" style="fill:#fff;fill-rule:nonzero;"/><rect x="623.433" y="161.296" width="1164.14" height="31.213" style="fill:#fff;fill-rule:nonzero;"/><path d="M131.192,500.296l-0,-16.804l-7.438,6.395l-7.967,5.246l-8.608,4.067l-9.125,3.017l-9.554,1.695l-10.142,0.517l-13.354,-0.908l-12.321,-2.783l-11.296,-4.642l-10.287,-6.546l-9.267,-8.467l-6.7,-8.15l-5.466,-8.941l-4.23,-9.763l-3.029,-10.55l-1.808,-11.342l-0.6,-12.158l0.654,-12.366l1.975,-11.555l3.288,-10.733l4.629,-9.908l5.95,-9.021l7.296,-8.188l8.504,-7.125l9.337,-5.829l10.204,-4.537l11.084,-3.254l11.971,-1.963l12.866,-0.65l5.946,0.283l5.992,0.884l5.958,1.458l6.275,1.867l6.154,2.508l6.121,3.042l0.154,-0.775l0.067,-0.93l0.008,-0.908l0.138,-1.092l0.062,-1.479l0.009,-1.816l-1.104,-9.175l-3.33,-7.096l-5.621,-5.108l-8.358,-3.33l-12.066,-2.075l-15.805,-0.708l-10.245,0.121l-9.763,0.321l-9.233,0.429l-8.746,0.796l-8.417,1.041l-8.162,1.217l1.962,-11.417l1.975,-11.445l1.967,-11.451l1.95,-11.458l1.971,-11.408l11.775,-1.55l11.3,-1.213l10.758,-0.95l10.438,-0.646l10.045,-0.491l9.859,-0.175l16.008,0.379l14.529,1.167l13.054,1.916l11.546,2.688l10.046,3.442l8.558,4.216l7.025,4.959l5.734,5.933l4.862,7.258l3.959,8.646l3.083,9.983l2.208,11.325l1.325,12.684l0.442,14.016l-0,159.359l-68.979,-0l-0,0.004Zm-28.167,-59.592l6.704,-0.762l6.109,-2.404l5.537,-4.267l4.15,-5.471l2.458,-6.071l0.8,-6.792l-0.8,-6.754l-2.458,-6.287l-4.15,-5.725l-5.537,-4.213l-6.109,-2.562l-6.704,-0.875l-6.529,0.875l-5.996,2.562l-5.367,4.213l-4.312,5.587l-2.504,6.28l-0.821,6.899l0.8,6.942l2.396,6.054l4,5.338l5.479,4.267l6.062,2.404l6.792,0.762Z" style="fill:#fff;fill-rule:nonzero;"/><path d="M243.179,500.296l0,-246.883l79.892,-0l-0,23.791l8.058,-8.387l8.838,-6.888l9.512,-5.467l10.742,-3.787l11.616,-2.233l12.355,-0.75l13.354,0.875l12.037,2.575l10.709,4.287l9.358,5.992l8.008,7.667l5.521,7.649l4.521,8.78l3.529,9.879l2.529,10.962l1.521,12.05l0.513,13.104l-0,166.78l-81.425,-0l-0,-130.742l-0.529,-12.842l-1.713,-9.775l-3,-6.862l-4.312,-4.617l-6.001,-2.629l-7.8,-0.833l-7.92,1.041l-6.65,3.167l-5.305,5.396l-3.537,7.341l-2.242,9.388l-0.766,11.433l-0,130.534l-81.413,-0l0,0.004Z" style="fill:#fff;fill-rule:nonzero;"/><path d="M495.3,500.296l0,-246.883l81.196,-0l-0,246.879l-81.196,-0l0,0.004Z" style="fill:#fff;fill-rule:nonzero;"/><path d="M622.337,500.296l0,-246.883l78.588,-0l0,26.624l8.512,-9.045l9.326,-7.53l10.104,-6.116l10.771,-4.225l11.349,-2.554l11.934,-0.875l12.162,0.883l11.188,2.679l10.267,4.521l9.175,6.387l8.287,8.176l7.421,9.887l9.612,-9.833l10.475,-8.075l11.354,-6.33l12.005,-4.679l12.504,-2.733l13.033,-0.883l13.125,0.875l11.838,2.575l10.55,4.287l9.216,5.992l7.879,7.667l5.509,7.75l4.517,8.766l3.545,9.875l2.509,10.921l1.533,12.021l0.496,13.091l-0,166.78l-80.113,-0l0,-130.742l-0.625,-12.9l-1.796,-9.883l-2.808,-6.917l-4.304,-4.471l-5.946,-2.567l-7.65,-0.82l-7.796,1.041l-6.387,3.167l-5.025,5.396l-3.8,7.341l-2.229,9.388l-0.738,11.433l0,130.534l-80.329,-0l0,-130.742l-0.575,-12.9l-1.696,-9.883l-2.754,-6.917l-4.296,-4.471l-5.954,-2.567l-7.65,-0.82l-7.842,1.041l-6.433,3.167l-4.933,5.396l-3.696,7.341l-2.288,9.388l-0.787,11.433l-0,130.534l-80.334,-0l0,0.004Z" style="fill:#fff;fill-rule:nonzero;"/><path d="M1214.57,476.5l-11.042,6.583l-11.471,5.7l-11.837,4.779l-12.146,3.905l-12.404,3.108l-12.675,2.175l-12.959,1.275l-13.262,0.404l-12.383,-0.416l-11.821,-1.28l-11.254,-2.133l-10.709,-3l-10.171,-3.838l-9.629,-4.679l-9.1,-5.529l-8.571,-6.383l-8.041,-7.229l-7.346,-7.955l-6.483,-8.47l-5.605,-8.984l-4.737,-9.487l-3.879,-9.992l-3.013,-10.525l-2.146,-11.05l-1.291,-11.583l-0.429,-12.092l0.445,-11.95l1.371,-11.487l2.25,-11.075l3.146,-10.65l4.071,-10.225l4.962,-9.792l5.846,-9.396l6.734,-8.979l7.629,-8.583l8.425,-7.834l8.825,-6.929l9.237,-6.021l9.638,-5.104l10.045,-4.179l10.434,-3.267l10.854,-2.333l11.258,-1.408l11.65,-0.454l12.929,0.62l12.334,1.859l11.771,3.083l11.204,4.338l10.65,5.558l10.092,6.796l8.116,6.791l7.479,7.467l6.834,8.163l6.175,8.829l5.504,9.55l4.796,10.241l4.108,10.963l-8.783,6.204l-8.792,6.204l-8.804,6.208l-8.796,6.221l-8.821,6.209l-8.812,6.216l-8.825,6.238l-8.813,6.212l-8.821,6.221l-8.808,6.221l-8.817,6.217l-8.816,6.216l-8.784,6.209l-8.804,6.195l-8.771,6.221l4.213,1.542l4.375,1.262l4.508,1.117l4.742,0.729l5.067,0.429l5.47,0.146l13.438,-1.079l13.7,-3.221l13.896,-5.291l10.696,-5.255l10.533,-6.291l10.454,-7.396c0.004,-0 10.454,-8.567 10.454,-8.567l0.85,11.513l0.871,11.55l0.896,11.546l1.766,23.108l0.875,11.525l0.859,11.525l-0.004,-0Zm-149.525,-97.142l9.416,-6.8l9.409,-6.779l9.4,-6.808l9.396,-6.779l9.383,-6.804l9.379,-6.8l9.363,-6.796l9.341,-6.78l-3.429,-2.995l-3.771,-2.392l-4.158,-1.821l-4.421,-1.25l-4.967,-0.704l-5.45,-0.233l-12.795,1.733l-11.734,5.188l-10.621,8.57l-8.421,11l-5.12,11.942l-1.734,12.871l0.071,1.962l0.146,1.963l0.221,1.958l0.287,2.138l0.375,2.141l0.434,2.275Z" style="fill:#fff;fill-rule:nonzero;"/><path d="M34.213,94.475c2.929,0.667 7.324,0.933 11.454,0.933c10.258,0 18.916,-3.062 24.779,-9.591c5.725,-6.259 10.787,-17.45 10.787,-37.963c0,-18.783 -5.195,-30.371 -12.121,-36.366c-4.929,-4.396 -11.72,-6.792 -21.045,-6.792c-5.196,-0 -9.992,0.533 -13.854,1.729l-0,88.05Zm10.258,-80.854c1.329,-0.4 3.196,-0.534 4.796,-0.534c14.383,0 21.312,12.388 21.312,35.034c0,30.637 -10.925,38.762 -22.246,38.762c-0.933,0 -2.4,0 -3.862,-0.266l-0,-72.996Z" style="fill:#fff;fill-rule:nonzero;"/><path d="M137.183,63.571c0.134,-1.596 0.267,-3.329 0.267,-5.859c-0,-14.52 -5.329,-28.374 -18.383,-28.374c-12.921,-0 -21.713,13.054 -21.713,33.966c0,19.85 7.992,32.371 23.308,32.371c5.196,-0 10.659,-1.067 14.255,-3.063l-1.729,-7.458c-2.534,1.329 -6.13,2.396 -10.659,2.396c-7.325,0 -15.054,-4.129 -15.187,-23.979l29.841,-0Zm-29.708,-7.592c0.4,-8.792 3.867,-18.65 10.525,-18.65c4.929,0 9.725,5.729 9.592,18.65l-20.117,0Z" style="fill:#fff;fill-rule:nonzero;"/><path d="M153.433,94.875l10.259,-0l-0,-35.7c-0,-2.263 0.133,-4.129 0.4,-5.858c1.062,-7.463 5.858,-13.454 12.387,-13.454c0.8,-0 1.463,-0 2.129,0.133l0,-10.525c-0.666,-0.133 -1.329,-0.133 -2.129,-0.133c-5.996,-0 -11.458,5.062 -13.587,11.191l-0.267,0l-0.533,-10.125l-9.192,0c0.133,4.796 0.533,11.188 0.533,16.65l0,47.821Z" style="fill:#fff;fill-rule:nonzero;"/><path d="M251.742,94.875l20.512,-89.779l-19.183,-0l-6.125,38.362c-1.6,10.125 -3.067,20.913 -4.263,31.571l-0.266,0c-1.2,-10.525 -3.063,-21.446 -4.53,-31.171l-6.395,-38.762l-19.313,-0l19.979,89.779l19.584,-0Z" style="fill:#fff;fill-rule:nonzero;"/><path d="M327.138,68.5c0.266,-1.863 0.533,-4.396 0.533,-9.058c-0,-19.713 -8.129,-30.771 -22.113,-30.771c-14.654,-0 -26.112,13.054 -26.112,34.9c-0,20.383 9.725,32.104 27.575,32.104c6.529,-0 13.321,-1.2 17.716,-3.063l-2.262,-12.387c-3.2,1.063 -7.463,2.129 -12.388,2.129c-7.729,0 -13.587,-3.729 -13.72,-13.854l30.771,0Zm-30.771,-12.254c0.133,-6.525 2.396,-14.788 8.125,-14.788c5.195,0 7.325,6.529 7.325,14.788l-15.45,-0Z" style="fill:#fff;fill-rule:nonzero;"/><path d="M342.588,94.875l17.449,-0l0,-33.033c0,-2.667 0.267,-5.063 0.8,-6.529c1.867,-6.659 6.792,-9.192 10.525,-9.192c1.463,-0 2.663,-0 3.73,0.133l-0,-17.317c-0.934,-0.133 -1.867,-0.266 -3.73,-0.266c-4.662,-0 -9.991,3.729 -12.787,10.658l-0.533,0l-0.934,-9.591l-15.054,-0c0.267,6.129 0.534,13.187 0.534,19.583l-0,45.554Z" style="fill:#fff;fill-rule:nonzero;"/><path d="M431.704,68.5c0.267,-1.863 0.533,-4.396 0.533,-9.058c0,-19.713 -8.124,-30.771 -22.112,-30.771c-14.654,-0 -26.108,13.054 -26.108,34.9c-0,20.383 9.725,32.104 27.575,32.104c6.525,-0 13.32,-1.2 17.716,-3.063l-2.266,-12.387c-3.196,1.063 -7.459,2.129 -12.388,2.129c-7.725,0 -13.587,-3.729 -13.721,-13.854l30.771,0Zm-30.771,-12.254c0.134,-6.525 2.396,-14.788 8.125,-14.788c5.196,0 7.325,6.529 7.325,14.788l-15.45,-0Z" style="fill:#fff;fill-rule:nonzero;"/><path d="M464.608,94.875l0,-65.137l-17.454,-0l0,65.137l17.454,-0Zm-9.058,-72.863c5.192,0 9.188,-3.862 9.058,-9.458c0,-5.862 -3.866,-9.592 -8.925,-9.592c-4.796,0 -9.058,3.73 -8.925,9.592c-0.133,5.596 3.863,9.458 8.659,9.458l0.133,0Z" style="fill:#fff;fill-rule:nonzero;"/><path d="M481.925,94.875l17.45,-0l-0,-39.696c-0,-2.529 0.4,-4.662 0.929,-5.991c1.2,-3.863 3.6,-5.863 6.529,-5.863c5.063,0 6.396,5.329 6.396,10.792l0,40.758l17.45,-0l0,-41.825c0,-14.521 -4.929,-24.379 -17.321,-24.379c-6.791,-0 -12.387,3.466 -15.716,8.525l-0.267,-0l-0.933,-7.458l-15.05,-0c0.266,6.262 0.533,12.52 0.533,19.583l0,45.554Z" style="fill:#fff;fill-rule:nonzero;"/><path d="M587.425,94.875l-0,-56.746l11.721,0l-0,-7.725l-11.721,0l-0,-4.129c-0,-8.258 1.729,-16.117 9.058,-16.117c2.663,0 4.396,0.53 5.725,1.063l1.6,-7.992c-1.866,-0.933 -4.529,-1.6 -7.991,-1.6c-3.996,0 -9.192,1.333 -12.921,5.463c-4.663,5.195 -5.729,12.387 -5.729,19.316l-0,3.996l-8.125,0l-0,7.725l8.125,0l-0,56.746l10.258,-0Z" style="fill:#fff;fill-rule:nonzero;"/><path d="M649.1,30.404l-10.258,0l-0,42.492c-0,2.133 -0.134,3.996 -0.534,5.729c-0.533,3.063 -3.195,8.658 -9.191,8.658c-7.059,0 -8.659,-7.591 -8.659,-17.583l0,-39.296l-10.254,0l0,40.763c0,15.983 4.529,24.775 15.717,24.775c6.925,-0 11.854,-4.663 13.721,-7.859l0.266,0l0.8,6.792l8.925,-0c-0.133,-4.796 -0.533,-10.521 -0.533,-17.583l-0,-46.888Zm-29.175,-10.925c3.2,0 5.596,-2.529 5.596,-5.858c-0,-3.596 -2.529,-5.996 -5.596,-5.996c-3.329,0 -5.992,2.533 -5.992,5.996c0,3.329 2.663,5.858 5.859,5.858l0.133,0Zm20.783,0c3.196,0 5.592,-2.529 5.592,-5.858c-0,-3.596 -2.529,-5.996 -5.592,-5.996c-3.333,0 -5.996,2.533 -5.996,5.996c0,3.329 2.663,5.858 5.863,5.858l0.133,0Z" style="fill:#fff;fill-rule:nonzero;"/><path d="M668.413,94.875l10.258,-0l-0,-35.7c-0,-2.263 0.133,-4.129 0.4,-5.858c1.067,-7.463 5.862,-13.454 12.387,-13.454c0.8,-0 1.467,-0 2.134,0.133l-0,-10.525c-0.667,-0.133 -1.334,-0.133 -2.134,-0.133c-5.991,-0 -11.454,5.062 -13.587,11.191l-0.267,0l-0.533,-10.125l-9.192,0c0.133,4.796 0.534,11.188 0.534,16.65l-0,47.821Z" style="fill:#fff;fill-rule:nonzero;"/><path d="M765.521,67.967l5.862,26.908l10.125,-0l-19.983,-89.779l-11.321,-0l-20.517,89.779l9.992,-0l5.863,-26.908l19.979,-0Zm-18.513,-8.259l4.663,-22.646c1.329,-6.124 2.662,-13.85 3.729,-20.645l0.4,-0c1.063,6.662 2.262,14.121 3.596,20.512l4.662,22.779l-17.05,0Z" style="fill:#fff;fill-rule:nonzero;"/><path d="M798.292,94.875l10.258,-0l0,-40.625c0,-2.267 0.133,-4.267 0.533,-5.729c1.196,-6.929 5.325,-10.525 9.588,-10.525c7.462,-0 8.925,7.592 8.925,15.321l-0,41.558l10.258,-0l0,-43.292c0,-15.716 -6.658,-22.245 -15.583,-22.245c-6.796,-0 -11.992,3.595 -14.788,8.791l-0.266,0l-0.534,-7.725l-8.925,0c0.134,5.196 0.534,9.059 0.534,16.65l-0,47.821Z" style="fill:#fff;fill-rule:nonzero;"/><path d="M867.558,94.875l0,-64.471l-10.254,0l0,64.471l10.254,-0Zm-5.329,-74.462c3.733,-0 6.129,-2.663 6.129,-6.659c0,-3.996 -2.396,-6.662 -6.129,-6.662c-3.329,-0 -5.992,2.666 -5.992,6.662c0,3.996 2.53,6.659 5.863,6.659l0.129,-0Z" style="fill:#fff;fill-rule:nonzero;"/><path d="M886.875,94.875l10.258,-0l0,-41.025c0,-2 0.134,-3.867 0.396,-5.463c1.2,-6.929 5.329,-10.525 9.592,-10.525c7.596,0 8.792,7.596 8.792,14.655l-0,42.358l10.258,-0l-0,-41.558c-0,-2.134 -0,-4.129 0.4,-5.73c1.467,-6.129 5.196,-9.725 9.458,-9.725c7.725,0 8.925,8.126 8.925,16.521l0,40.492l10.254,-0l0,-42.758c0,-16.517 -6.791,-22.779 -15.583,-22.779c-3.329,-0 -6.262,0.8 -8.925,2.399c-2.267,1.596 -4.529,4.13 -6.262,7.326l-0.267,-0.001c-2.396,-6.925 -7.592,-9.724 -13.583,-9.724c-6.796,-0 -11.592,3.729 -14.388,8.924l-0.267,0l-0.533,-7.858l-9.058,0c0.133,5.196 0.533,9.059 0.533,16.65l0,47.821Z" style="fill:#fff;fill-rule:nonzero;"/><path d="M1011.56,63.571c0.134,-1.596 0.267,-3.329 0.267,-5.859c-0,-14.52 -5.329,-28.374 -18.383,-28.374c-12.921,-0 -21.713,13.054 -21.713,33.966c0,19.85 7.992,32.371 23.309,32.371c5.195,-0 10.658,-1.067 14.254,-3.063l-1.729,-7.458c-2.534,1.329 -6.13,2.396 -10.659,2.396c-7.325,0 -15.054,-4.129 -15.187,-23.979l29.841,-0Zm-29.708,-7.592c0.4,-8.792 3.867,-18.65 10.525,-18.65c4.929,0 9.725,5.729 9.592,18.65l-20.117,0Z" style="fill:#fff;fill-rule:nonzero;"/><rect x="1026.08" y="46.121" width="29.175" height="7.863" style="fill:#fff;fill-rule:nonzero;"/><path d="M1137.44,30.404l-10.258,0l0,42.492c0,2.133 -0.129,3.996 -0.529,5.729c-0.533,3.063 -3.2,8.658 -9.192,8.658c-7.062,0 -8.658,-7.591 -8.658,-17.583l-0,-39.296l-10.258,0l-0,40.763c-0,15.983 4.529,24.775 15.716,24.775c6.929,-0 11.859,-4.663 13.721,-7.859l0.267,0l0.8,6.792l8.925,-0c-0.134,-4.796 -0.534,-10.521 -0.534,-17.583l0,-46.888Z" style="fill:#fff;fill-rule:nonzero;"/><path d="M1156.89,94.875l10.254,-0l-0,-40.625c-0,-2.267 0.133,-4.267 0.533,-5.729c1.2,-6.929 5.329,-10.525 9.592,-10.525c7.458,-0 8.925,7.592 8.925,15.321l-0,41.558l10.258,-0l0,-43.292c0,-15.716 -6.662,-22.245 -15.587,-22.245c-6.792,-0 -11.988,3.595 -14.784,8.791l-0.266,0l-0.534,-7.725l-8.925,0c0.134,5.196 0.534,9.059 0.534,16.65l-0,47.821Z" style="fill:#fff;fill-rule:nonzero;"/><path d="M1244.54,2.696l0,34.233l-0.266,0c-2.529,-5.458 -7.059,-7.591 -11.721,-7.591c-9.992,-0 -19.45,10.658 -19.45,33.57c0,21.313 7.858,33.034 18.783,33.034c6.792,-0 11.455,-4.529 13.455,-9.059l0.533,0l0.662,7.992l8.792,-0c-0.129,-3.729 -0.529,-11.054 -0.529,-15.45l-0,-76.729l-10.259,-0Zm0,69.4c0,1.6 0,3.067 -0.4,4.267c-2.262,9.32 -6.658,11.054 -9.858,11.054c-7.458,-0 -10.921,-10.925 -10.921,-24.509c0,-12.925 2.929,-24.779 11.455,-24.779c4.929,0 9.058,5.863 9.591,12.521c0.133,1.467 0.133,2.933 0.133,4.263l0,17.183Z" style="fill:#fff;fill-rule:nonzero;"/><path d="M1358.43,94.875l9.592,-0l-5.196,-89.779l-11.454,-0l-10.125,41.025c-2.929,12.125 -4.929,20.65 -6.659,30.904l-0.4,0c-1.866,-10.254 -4.129,-19.046 -7.195,-30.904l-10.388,-41.025l-11.191,-0l-5.33,89.779l9.192,-0l1.733,-37.963c0.534,-12.787 1.2,-25.308 1.067,-35.833l0.4,0c1.863,10.392 4.396,21.446 7.458,32.904l10.392,40.359l6.658,-0l10.925,-42.092c2.796,-10.392 5.192,-21.179 7.192,-31.171l0.533,0c-0.4,10.125 0.267,23.313 0.934,35.167l1.862,38.629Z" style="fill:#fff;fill-rule:nonzero;"/><path d="M1421.57,52.25c-0,-14.388 -5.463,-22.912 -18.383,-22.912c-6.396,-0 -12.255,2.266 -15.055,4.262l2.267,7.196c3.062,-2.134 6.658,-3.334 10.654,-3.334c8.129,0 10.258,5.996 10.258,14.655l0,2c-14.52,0.133 -27.441,7.191 -27.441,23.441c-0,11.192 6.662,18.384 15.321,18.384c5.462,-0 9.991,-2.93 12.787,-7.859l0.4,0l0.667,6.792l9.192,-0c-0.667,-4.129 -0.667,-9.721 -0.667,-14.65l-0,-27.975Zm-9.992,22.246c0,1.2 -0.133,2.529 -0.4,3.729c-1.2,6.396 -4.929,9.725 -9.458,9.725c-3.596,0 -7.858,-2.929 -7.858,-11.458c-0,-13.984 12.387,-15.05 17.716,-15.05l0,13.054Z" style="fill:#fff;fill-rule:nonzero;"/><path d="M1441.15,94.875l10.258,-0l0,-40.625c0,-2.267 0.134,-4.267 0.534,-5.729c1.2,-6.929 5.329,-10.525 9.591,-10.525c7.459,-0 8.925,7.592 8.925,15.321l0,41.558l10.255,-0l-0,-43.292c-0,-15.716 -6.659,-22.245 -15.584,-22.245c-6.791,-0 -11.987,3.595 -14.787,8.791l-0.267,0l-0.529,-7.725l-8.925,0c0.133,5.196 0.529,9.059 0.529,16.65l0,47.821Z" style="fill:#fff;fill-rule:nonzero;"/><path d="M1539.06,50.517c0,-9.988 0.4,-15.717 0.534,-20.113l-9.192,0l-0.533,7.192l-0.267,-0c-1.996,-3.729 -5.192,-8.258 -11.988,-8.258c-9.591,-0 -20.245,9.724 -20.245,33.57c-0,18.913 7.458,31.834 18.912,31.834c5.329,-0 10.125,-2.796 12.258,-7.859l0.267,0l0,6.529c0,14.65 -5.062,19.713 -13.187,19.713c-5.063,0 -9.325,-1.462 -11.859,-2.796l-2.396,7.992c3.33,1.867 8.659,3.196 14.121,3.196c7.192,-0 13.188,-2.53 17.184,-6.792c4.262,-4.796 6.391,-11.192 6.391,-28.108l0,-36.1Zm-10.254,20.783c0,1.862 0,3.863 -0.667,5.858c-1.999,7.73 -5.995,9.192 -9.191,9.192c-6.129,-0 -11.325,-7.458 -11.325,-23.975c-0,-14.254 3.996,-24.246 11.325,-24.246c5.858,0 8.258,5.463 9.325,9.725c0.4,1.467 0.533,3.063 0.533,4.796l0,18.65Z" style="fill:#fff;fill-rule:nonzero;"/><path d="M1592.34,52.25c-0,-14.388 -5.463,-22.912 -18.384,-22.912c-6.391,-0 -12.254,2.266 -15.05,4.262l2.263,7.196c3.066,-2.134 6.662,-3.334 10.658,-3.334c8.125,0 10.258,5.996 10.258,14.655l0,2c-14.52,0.133 -27.441,7.191 -27.441,23.441c-0,11.192 6.658,18.384 15.316,18.384c5.463,-0 9.992,-2.93 12.788,-7.859l0.4,0l0.667,6.792l9.191,-0c-0.666,-4.129 -0.666,-9.721 -0.666,-14.65l-0,-27.975Zm-9.992,22.246c0,1.2 -0.133,2.529 -0.396,3.729c-1.2,6.396 -4.929,9.725 -9.458,9.725c-3.6,0 -7.863,-2.929 -7.863,-11.458c0,-13.984 12.392,-15.05 17.717,-15.05l0,13.054Z" style="fill:#fff;fill-rule:nonzero;"/><path d="M1624.31,94.875l0,-56.746l11.721,0l0,-7.725l-11.721,0l0,-4.129c0,-8.258 1.734,-16.117 9.059,-16.117c2.662,0 4.396,0.53 5.729,1.063l1.596,-7.992c-1.863,-0.933 -4.529,-1.6 -7.992,-1.6c-3.996,0 -9.191,1.333 -12.921,5.463c-4.662,5.195 -5.729,12.387 -5.729,19.316l0,3.996l-8.125,0l0,7.725l8.125,0l0,56.746l10.258,-0Z" style="fill:#fff;fill-rule:nonzero;"/><path d="M1681.33,52.25c0,-14.388 -5.462,-22.912 -18.383,-22.912c-6.392,-0 -12.254,2.266 -15.05,4.262l2.262,7.196c3.063,-2.134 6.663,-3.334 10.659,-3.334c8.125,0 10.254,5.996 10.254,14.655l-0,2c-14.517,0.133 -27.438,7.191 -27.438,23.441c0,11.192 6.659,18.384 15.317,18.384c5.462,-0 9.992,-2.93 12.787,-7.859l0.4,0l0.667,6.792l9.192,-0c-0.667,-4.129 -0.667,-9.721 -0.667,-14.65l0,-27.975Zm-9.992,22.246c0,1.2 -0.133,2.529 -0.4,3.729c-1.196,6.396 -4.925,9.725 -9.454,9.725c-3.6,0 -7.862,-2.929 -7.862,-11.458c-0,-13.984 12.391,-15.05 17.716,-15.05l0,13.054Z" style="fill:#fff;fill-rule:nonzero;"/><path d="M1700.91,94.875l10.254,-0l0,-40.625c0,-2.267 0.134,-4.267 0.534,-5.729c1.2,-6.929 5.329,-10.525 9.592,-10.525c7.458,-0 8.925,7.592 8.925,15.321l-0,41.558l10.258,-0l-0,-43.292c-0,-15.716 -6.663,-22.245 -15.588,-22.245c-6.791,-0 -11.987,3.595 -14.783,8.791l-0.267,0l-0.533,-7.725l-8.925,0c0.133,5.196 0.533,9.059 0.533,16.65l0,47.821Z" style="fill:#fff;fill-rule:nonzero;"/><path d="M1755.65,91.946c2.8,2.262 7.992,3.729 12.654,3.729c10.659,-0 19.45,-6.258 19.45,-19.183c0,-8.921 -5.862,-14.917 -13.321,-19.713c-6.395,-4.262 -7.991,-6.796 -7.991,-11.058c-0,-4.263 2.796,-8.259 8.258,-8.259c3.463,0 6.129,1.2 8.658,2.934l2.663,-7.729c-2.663,-1.729 -6.392,-3.329 -11.454,-3.329c-9.992,-0 -17.717,7.329 -17.717,17.849c0,7.326 4.529,12.921 12.921,18.384c6.529,4.262 8.258,7.725 8.258,12.654c0,5.729 -3.729,9.325 -9.458,9.325c-4.129,0 -8.125,-1.867 -10.388,-3.329l-2.533,7.725Z" style="fill:#fff;fill-rule:nonzero;"/></g></svg>