<?xml version="1.0" encoding="UTF-8" standalone="no"?>
<!DOCTYPE svg PUBLIC "-//W3C//DTD SVG 1.1//EN" "http://www.w3.org/Graphics/SVG/1.1/DTD/svg11.dtd">
<svg width="100%" height="100%" viewBox="0 0 1184 259" version="1.1" xmlns="http://www.w3.org/2000/svg" xmlns:xlink="http://www.w3.org/1999/xlink" xml:space="preserve" xmlns:serif="http://www.serif.com/" style="fill-rule:evenodd;clip-rule:evenodd;stroke-linejoin:round;stroke-miterlimit:2;">
    <g transform="matrix(4.16667,0,0,4.16667,0,78.8625)">
        <path d="M197.859,10.8L208.628,0.031L219.364,10.8L230.133,0.031L240.871,10.8L230.133,21.538L240.871,32.306L230.133,43.042L219.364,32.306L208.628,43.042L197.859,32.306L208.628,21.538L197.859,10.8Z" style="fill:white;fill-rule:nonzero;"/>
    </g>
    <g transform="matrix(4.16667,0,0,4.16667,0,79.1333)">
        <path d="M240.385,10.769L251.121,0L261.89,10.769L272.627,0L283.396,10.769L272.627,21.505L283.396,32.272L272.627,43.008L261.89,32.272L251.121,43.008L240.385,32.272L251.121,21.505L240.385,10.769Z" style="fill:white;fill-rule:nonzero;"/>
    </g>
    <g transform="matrix(2.95254,-2.94,-2.94,-2.95254,259.917,445.53)">
        <rect x="79.76" y="47.262" width="11.652" height="11.602" style="fill:white;"/>
    </g>
    <g transform="matrix(4.16667,0,0,4.16667,0,-184.871)">
        <rect x="5.433" y="50.709" width="66.636" height="4.951" style="fill:white;"/>
    </g>
    <g transform="matrix(4.16667,0,0,4.16667,0,-185.146)">
        <rect x="98.861" y="50.743" width="184.604" height="4.949" style="fill:white;"/>
    </g>
    <g transform="matrix(4.16667,0,0,4.16667,0,81.0917)">
        <path d="M20.804,40.602L20.804,37.938L19.624,38.952L18.361,39.784L16.996,40.429L15.549,40.907L14.034,41.176L12.426,41.258L10.308,41.114L8.354,40.673L6.563,39.937L4.932,38.899L3.462,37.556L2.4,36.264L1.533,34.846L0.862,33.298L0.382,31.625L0.095,29.826L0,27.898L0.104,25.937L0.417,24.105L0.938,22.403L1.672,20.832L2.616,19.401L3.773,18.103L5.121,16.973L6.602,16.049L8.22,15.329L9.978,14.813L11.876,14.502L13.916,14.399L14.859,14.444L15.809,14.584L16.754,14.815L17.749,15.111L18.725,15.509L19.696,15.991L19.72,15.868L19.731,15.721L19.732,15.577L19.754,15.404L19.764,15.169L19.765,14.881L19.59,13.426L19.062,12.301L18.171,11.491L16.845,10.963L14.932,10.634L12.426,10.522L10.801,10.541L9.253,10.592L7.789,10.66L6.402,10.786L5.067,10.951L3.773,11.144L4.084,9.334L4.397,7.519L4.709,5.703L5.018,3.886L5.331,2.077L7.198,1.831L8.99,1.639L10.696,1.488L12.351,1.386L13.944,1.308L15.507,1.28L18.046,1.34L20.35,1.525L22.42,1.829L24.251,2.255L25.844,2.801L27.201,3.47L28.315,4.256L29.224,5.197L29.995,6.348L30.623,7.719L31.112,9.302L31.462,11.098L31.672,13.109L31.742,15.332L31.742,40.602L20.804,40.602ZM16.337,31.153L17.4,31.032L18.369,30.651L19.247,29.974L19.905,29.107L20.295,28.144L20.422,27.067L20.295,25.996L19.905,24.999L19.247,24.091L18.369,23.423L17.4,23.017L16.337,22.878L15.302,23.017L14.351,23.423L13.5,24.091L12.816,24.977L12.419,25.973L12.289,27.067L12.416,28.168L12.796,29.128L13.43,29.974L14.299,30.651L15.26,31.032L16.337,31.153Z" style="fill:white;fill-rule:nonzero;"/>
    </g>
    <g transform="matrix(4.16667,0,0,4.16667,0,76.6208)">
        <path d="M38.562,41.675L38.562,2.526L51.231,2.526L51.231,6.299L52.509,4.969L53.91,3.877L55.419,3.01L57.122,2.409L58.964,2.055L60.923,1.936L63.041,2.075L64.95,2.483L66.648,3.163L68.132,4.113L69.402,5.329L70.277,6.542L70.994,7.934L71.554,9.501L71.955,11.239L72.196,13.15L72.277,15.228L72.277,41.675L59.365,41.675L59.365,20.943L59.281,18.906L59.01,17.356L58.534,16.268L57.85,15.536L56.899,15.119L55.662,14.987L54.406,15.152L53.351,15.654L52.51,16.51L51.949,17.674L51.594,19.163L51.472,20.976L51.472,41.675L38.562,41.675Z" style="fill:white;fill-rule:nonzero;"/>
    </g>
    <g transform="matrix(4.16667,0,0,4.16667,0,79.0792)">
        <rect x="78.542" y="1.936" width="12.876" height="39.149" style="fill:white;"/>
    </g>
    <g transform="matrix(4.16667,0,0,4.16667,0,76.6208)">
        <path d="M98.687,41.675L98.687,2.526L111.149,2.526L111.149,6.748L112.499,5.314L113.978,4.12L115.58,3.15L117.288,2.48L119.088,2.075L120.98,1.936L122.909,2.076L124.683,2.501L126.311,3.218L127.766,4.231L129.08,5.527L130.257,7.095L131.781,5.536L133.442,4.255L135.243,3.252L137.146,2.51L139.129,2.076L141.196,1.936L143.277,2.075L145.154,2.483L146.827,3.163L148.289,4.113L149.538,5.329L150.412,6.558L151.128,7.948L151.69,9.514L152.088,11.246L152.331,13.152L152.41,15.228L152.41,41.675L139.706,41.675L139.706,20.943L139.607,18.897L139.322,17.33L138.877,16.233L138.194,15.524L137.251,15.117L136.038,14.987L134.802,15.152L133.789,15.654L132.992,16.51L132.39,17.674L132.036,19.163L131.919,20.976L131.919,41.675L119.181,41.675L119.181,20.943L119.09,18.897L118.821,17.33L118.384,16.233L117.703,15.524L116.759,15.117L115.546,14.987L114.302,15.152L113.282,15.654L112.5,16.51L111.914,17.674L111.551,19.163L111.426,20.976L111.426,41.675L98.687,41.675Z" style="fill:white;fill-rule:nonzero;"/>
    </g>
    <g transform="matrix(4.16667,0,0,4.16667,0,79.65)">
        <path d="M192.6,37.175L190.849,38.219L189.03,39.123L187.153,39.881L185.227,40.5L183.26,40.993L181.25,41.338L179.195,41.54L177.092,41.604L175.128,41.538L173.254,41.335L171.469,40.997L169.771,40.521L168.158,39.913L166.631,39.171L165.188,38.294L163.829,37.282L162.554,36.135L161.389,34.874L160.361,33.531L159.472,32.106L158.721,30.602L158.106,29.017L157.628,27.348L157.288,25.596L157.083,23.759L157.015,21.842L157.086,19.947L157.303,18.125L157.66,16.369L158.159,14.68L158.804,13.059L159.591,11.506L160.518,10.016L161.586,8.592L162.796,7.231L164.132,5.989L165.531,4.89L166.996,3.935L168.524,3.126L170.117,2.463L171.772,1.945L173.493,1.575L175.278,1.352L177.126,1.28L179.176,1.378L181.132,1.673L182.998,2.162L184.775,2.85L186.464,3.731L188.064,4.809L189.351,5.886L190.537,7.07L191.621,8.364L192.6,9.764L193.473,11.279L194.233,12.903L194.885,14.641L193.492,15.625L192.098,16.609L190.702,17.593L189.307,18.58L187.908,19.564L186.511,20.55L185.111,21.539L183.714,22.524L182.315,23.511L180.918,24.497L178.122,26.469L176.729,27.453L175.333,28.436L173.942,29.422L174.61,29.667L175.304,29.867L176.019,30.044L176.771,30.16L177.574,30.228L178.442,30.251L180.573,30.08L182.745,29.569L184.949,28.73L186.645,27.897L188.315,26.899L189.973,25.726L191.63,24.368L191.765,26.193L191.903,28.025L192.045,29.856L192.325,33.52L192.464,35.348L192.6,37.175ZM168.889,21.771L170.382,20.693L171.874,19.618L173.365,18.538L174.855,17.463L176.343,16.384L177.83,15.306L179.315,14.228L180.796,13.153L180.252,12.678L179.654,12.299L178.995,12.01L178.294,11.812L177.506,11.7L176.642,11.663L174.613,11.938L172.752,12.761L171.068,14.12L169.733,15.864L168.921,17.758L168.646,19.799L168.657,20.11L168.68,20.421L168.715,20.732L168.761,21.071L168.82,21.41L168.889,21.771Z" style="fill:white;fill-rule:nonzero;"/>
    </g>
</svg>
